<svg id="cross-circular-button-outline" xmlns="http://www.w3.org/2000/svg" width="26.23" height="26.23" viewBox="0 0 26.23 26.23">
  <g id="Group_3" data-name="Group 3">
    <path id="Path_1" data-name="Path 1" d="M179.261,180.1l.843-.843-5.059-5.059,5.059-5.059-.843-.843-5.059,5.059-5.059-5.059-.843.843,5.059,5.059-5.059,5.059.843.843,5.059-5.059Z" transform="translate(-161.087 -161.087)" fill="#0096ff"/>
    <path id="Path_2" data-name="Path 2" d="M26.23,13.115A13.115,13.115,0,1,0,13.115,26.23,13.115,13.115,0,0,0,26.23,13.115Zm-25.038,0A11.923,11.923,0,1,1,13.115,25.038,11.923,11.923,0,0,1,1.192,13.115Z" fill="#0096ff"/>
  </g>
</svg>
