<svg id="_001-dashboard" data-name="001-dashboard" xmlns="http://www.w3.org/2000/svg" width="22.313" height="22.313" viewBox="0 0 22.313 22.313">
  <path id="Path_12" data-name="Path 12" d="M8.6,7.438H1.627A1.629,1.629,0,0,1,0,5.811V1.627A1.629,1.629,0,0,1,1.627,0H8.6a1.629,1.629,0,0,1,1.627,1.627V5.811A1.629,1.629,0,0,1,8.6,7.438ZM1.627,1.395a.233.233,0,0,0-.232.232V5.811a.233.233,0,0,0,.232.233H8.6a.233.233,0,0,0,.233-.233V1.627A.233.233,0,0,0,8.6,1.395Zm0,0" transform="translate(0 0)" fill="#19a0ff"/>
  <path id="Path_13" data-name="Path 13" d="M8.6,226.348H1.627A1.629,1.629,0,0,1,0,224.721v-9.762a1.629,1.629,0,0,1,1.627-1.627H8.6a1.629,1.629,0,0,1,1.627,1.627v9.762A1.629,1.629,0,0,1,8.6,226.348ZM1.627,214.727a.233.233,0,0,0-.232.233v9.762a.233.233,0,0,0,.232.232H8.6a.233.233,0,0,0,.233-.232v-9.762a.233.233,0,0,0-.233-.233Zm0,0" transform="translate(0 -204.035)" fill="#19a0ff"/>
  <path id="Path_14" data-name="Path 14" d="M285.932,348.77h-6.973a1.629,1.629,0,0,1-1.627-1.627v-4.184a1.629,1.629,0,0,1,1.627-1.627h6.973a1.629,1.629,0,0,1,1.627,1.627v4.184A1.629,1.629,0,0,1,285.932,348.77Zm-6.973-6.043a.233.233,0,0,0-.233.233v4.184a.233.233,0,0,0,.233.232h6.973a.233.233,0,0,0,.232-.232v-4.184a.233.233,0,0,0-.232-.233Zm0,0" transform="translate(-265.246 -326.457)" fill="#19a0ff"/>
  <path id="Path_15" data-name="Path 15" d="M285.932,13.016h-6.973a1.629,1.629,0,0,1-1.627-1.627V1.627A1.629,1.629,0,0,1,278.959,0h6.973a1.629,1.629,0,0,1,1.627,1.627v9.762A1.629,1.629,0,0,1,285.932,13.016ZM278.959,1.395a.233.233,0,0,0-.233.232v9.762a.233.233,0,0,0,.233.233h6.973a.233.233,0,0,0,.232-.233V1.627a.233.233,0,0,0-.232-.232Zm0,0" transform="translate(-265.246 0)" fill="#19a0ff"/>
</svg>
