<svg xmlns="http://www.w3.org/2000/svg" width="18.328" height="18.236" viewBox="0 0 18.328 18.236">
  <g id="edit" transform="translate(0 -0.261)">
    <path id="Path_205" data-name="Path 205" d="M16.916,48.84a.456.456,0,0,0-.456.456v4.053a1.371,1.371,0,0,1-1.369,1.369H2.282A1.371,1.371,0,0,1,.913,53.349v-11.9a1.371,1.371,0,0,1,1.369-1.369H6.335a.456.456,0,1,0,0-.913H2.282A2.285,2.285,0,0,0,0,41.454v11.9a2.285,2.285,0,0,0,2.282,2.282H15.09a2.285,2.285,0,0,0,2.282-2.282V49.3A.456.456,0,0,0,16.916,48.84Zm0,0" transform="translate(0 -37.135)" fill="#0096ff"/>
    <path id="Path_206" data-name="Path 206" d="M120.443.862a2.054,2.054,0,0,0-2.9,0l-8.144,8.144a.456.456,0,0,0-.117.2l-1.071,3.866a.456.456,0,0,0,.562.562l3.866-1.071a.456.456,0,0,0,.2-.117L120.979,4.3a2.056,2.056,0,0,0,0-2.9ZM110.389,9.3l6.665-6.665L119.2,4.787l-6.665,6.665Zm-.429.862,1.717,1.717-2.375.658Zm10.374-6.507-.484.484-2.15-2.15.484-.484a1.141,1.141,0,0,1,1.614,0l.536.536A1.143,1.143,0,0,1,120.333,3.658Zm0,0" transform="translate(-103.251)" fill="#0096ff"/>
  </g>
</svg>
