<svg xmlns="http://www.w3.org/2000/svg" width="20.129" height="16.337" viewBox="0 0 20.129 16.337">
  <g id="photo-camera" transform="translate(0 -46.15)">
    <g id="Group_141" data-name="Group 141" transform="translate(0 46.15)">
      <path id="Path_168" data-name="Path 168" d="M0,51.149v8.881a2.458,2.458,0,0,0,2.457,2.457H17.672a2.458,2.458,0,0,0,2.457-2.457V51.149a2.339,2.339,0,0,0-2.337-2.337h-3.27l-.078-.341a2.986,2.986,0,0,0-2.925-2.321H8.606a2.993,2.993,0,0,0-2.925,2.321l-.078.341H2.337A2.341,2.341,0,0,0,0,51.149Zm6.006-1.331a.5.5,0,0,0,.489-.39l.168-.731a1.987,1.987,0,0,1,1.943-1.54h2.913a1.987,1.987,0,0,1,1.943,1.54l.168.731a.505.505,0,0,0,.489.39h3.668a1.331,1.331,0,0,1,1.331,1.331v8.881a1.45,1.45,0,0,1-1.45,1.45H2.457a1.45,1.45,0,0,1-1.45-1.45V51.149a1.331,1.331,0,0,1,1.331-1.331Z" transform="translate(0 -46.15)" fill="#19a0ff"/>
      <circle id="Ellipse_8" data-name="Ellipse 8" cx="0.674" cy="0.674" r="0.674" transform="translate(2.732 5.143)" fill="#19a0ff"/>
      <path id="Path_169" data-name="Path 169" d="M146.327,183.6a4.227,4.227,0,1,0-4.227-4.227A4.234,4.234,0,0,0,146.327,183.6Zm0-7.448a3.221,3.221,0,1,1-3.221,3.221A3.226,3.226,0,0,1,146.327,176.156Z" transform="translate(-136.263 -169.851)" fill="#19a0ff"/>
    </g>
  </g>
</svg>
