<svg xmlns="http://www.w3.org/2000/svg" width="20" height="23.514" viewBox="0 0 20 23.514">
  <g id="Group_14" data-name="Group 14" transform="translate(0 0)">
    <path id="Path_9" data-name="Path 9" d="M142.078,12.67h.156a4.493,4.493,0,0,0,3.433-1.485c1.875-2.113,1.563-5.736,1.529-6.082A4.968,4.968,0,0,0,144.834.687,5.414,5.414,0,0,0,142.215,0h-.083a5.422,5.422,0,0,0-2.62.667A4.971,4.971,0,0,0,137.121,5.1c-.034.346-.346,3.968,1.529,6.082A4.475,4.475,0,0,0,142.078,12.67Zm-3.657-7.445c0-.015,0-.029,0-.039.161-3.491,2.639-3.866,3.7-3.866h.058c1.315.029,3.55.565,3.7,3.866a.1.1,0,0,0,0,.039c0,.034.346,3.345-1.2,5.088a3.191,3.191,0,0,1-2.508,1.042h-.049a3.181,3.181,0,0,1-2.5-1.042C138.086,8.58,138.417,5.254,138.422,5.225Z" transform="translate(-132.163)" fill="#0d9bff"/>
    <path id="Path_10" data-name="Path 10" d="M56.072,265.3v-.015c0-.039,0-.078,0-.122-.029-.964-.093-3.219-2.206-3.939l-.049-.015a14.05,14.05,0,0,1-4.041-1.841.657.657,0,1,0-.755,1.076,15.166,15.166,0,0,0,4.446,2.03c1.135.4,1.261,1.617,1.3,2.727a.978.978,0,0,0,0,.122,8.839,8.839,0,0,1-.1,1.5,17.92,17.92,0,0,1-8.584,2,18.022,18.022,0,0,1-8.589-2,8.367,8.367,0,0,1-.1-1.5c0-.039,0-.078,0-.122.034-1.11.161-2.323,1.3-2.727a15.307,15.307,0,0,0,4.446-2.03.657.657,0,0,0-.755-1.076,13.9,13.9,0,0,1-4.041,1.841l-.049.015c-2.113.726-2.177,2.98-2.206,3.939a.978.978,0,0,1,0,.122v.015a7.467,7.467,0,0,0,.248,2.206.625.625,0,0,0,.253.307,18.417,18.417,0,0,0,9.5,2.327,18.473,18.473,0,0,0,9.5-2.327.652.652,0,0,0,.253-.307A7.834,7.834,0,0,0,56.072,265.3Z" transform="translate(-36.073 -246.621)" fill="#0d9bff"/>
  </g>
</svg>
