<svg id="_006-timeline-1" data-name="006-timeline-1" xmlns="http://www.w3.org/2000/svg" width="19.517" height="23.417" viewBox="0 0 19.517 23.417">
  <g id="Group_93" data-name="Group 93" transform="translate(0 0)">
    <g id="Group_92" data-name="Group 92">
      <path id="Path_133" data-name="Path 133" d="M173.308,5.855a.519.519,0,0,0,0,.055.506.506,0,0,0,.532.477h8.969a.506.506,0,0,0,.477-.532V.533a.519.519,0,0,0,0-.055A.506.506,0,0,0,182.754,0h-8.969a.506.506,0,0,0-.477.532Zm1.064-4.789h7.85V5.323h-7.85Z" transform="translate(-166.43 0)" fill="#fff"/>
      <path id="Path_134" data-name="Path 134" d="M185.947,173.038v-5.322a.511.511,0,0,0,0-.055.506.506,0,0,0-.532-.477H173.785a.506.506,0,0,0-.477.532v5.322a.519.519,0,0,0,0,.055.506.506,0,0,0,.532.477h11.629A.506.506,0,0,0,185.947,173.038Zm-1.064-.532h-10.51v-4.257h10.51v4.257Z" transform="translate(-166.43 -158.669)" fill="#fff"/>
      <path id="Path_135" data-name="Path 135" d="M183.287,334.9a.511.511,0,0,0,0-.055.506.506,0,0,0-.532-.477h-8.969a.506.506,0,0,0-.477.532v5.322a.519.519,0,0,0,0,.055.506.506,0,0,0,.532.477h8.969a.506.506,0,0,0,.477-.532Zm-1.064,4.789h-7.85v-4.257h7.85v4.257Z" transform="translate(-166.431 -317.338)" fill="#fff"/>
      <path id="Path_136" data-name="Path 136" d="M42.924,12.839a2.315,2.315,0,0,0-4.574.5A2.262,2.262,0,0,0,40.106,15.6v4.311a2.315,2.315,0,0,0,0,4.523v4.311a2.262,2.262,0,0,0-1.756,2.262,2.315,2.315,0,1,0,2.821-2.262V24.437a2.326,2.326,0,0,0,0-4.523V15.6A2.315,2.315,0,0,0,42.924,12.839Zm-.982,18.171a1.277,1.277,0,0,1-1.277,1.251,1.251,1.251,0,1,1,0-2.5A1.277,1.277,0,0,1,41.942,31.009Zm-.026-8.835a1.251,1.251,0,0,1-1.25,1.251h0a1.251,1.251,0,1,1,1.251-1.251Zm-1.251-7.583a1.251,1.251,0,0,1,0-2.5,1.251,1.251,0,1,1,0,2.5Z" transform="translate(-38.284 -10.467)" fill="#fff"/>
      <path id="Path_137" data-name="Path 137" d="M205.2,37.65h3.06a.532.532,0,1,0,0-1.064H205.2a.532.532,0,1,0,0,1.064Z" transform="translate(-195.195 -33.723)" fill="#fff"/>
      <path id="Path_140" data-name="Path 140" d="M205.2,236.181h5.721a.532.532,0,1,0,0-1.064H205.2a.532.532,0,0,0,0,1.064Z" transform="translate(-195.195 -224.143)" fill="#fff"/>
      <path id="Path_141" data-name="Path 141" d="M205.2,372.018h3.06a.532.532,0,1,0,0-1.064H205.2a.532.532,0,1,0,0,1.064Z" transform="translate(-195.195 -351.061)" fill="#fff"/>
    </g>
  </g>
</svg>
