<svg xmlns="http://www.w3.org/2000/svg" width="22.574" height="23.417" viewBox="0 0 22.574 23.417">
  <g id="_002-event" data-name="002-event" transform="translate(-7.848 -1)">
    <g id="Group_91" data-name="Group 91" transform="translate(7.848 1)">
      <g id="Group_90" data-name="Group 90">
        <path id="Path_119" data-name="Path 119" d="M28.376,2.54q-.072,0-.144,0H26.426V.987A1.1,1.1,0,0,0,25.213,0H23.549a.972.972,0,0,0-1.072.987V2.539H15.705V.987A.972.972,0,0,0,14.633,0H12.969a1.1,1.1,0,0,0-1.213.987V2.539H9.95A2.088,2.088,0,0,0,7.8,4.568q0,.072,0,.144V21.019a2.3,2.3,0,0,0,2.144,2.4H28.232a2.3,2.3,0,0,0,2.144-2.4V4.712A2.088,2.088,0,0,0,28.376,2.54ZM23.549,1.129H25.3v3.1H23.549Zm-10.58,0h1.608v3.1H12.969Zm16.279,19.89a1.172,1.172,0,0,1-1.016,1.27H9.95a1.172,1.172,0,0,1-1.016-1.27V9.028H29.248Zm0-16.307V7.9H8.934V4.712A.959.959,0,0,1,9.95,3.668h1.806v.621A1.161,1.161,0,0,0,12.969,5.36h1.665a1.044,1.044,0,0,0,1.072-1.015q0-.029,0-.057V3.668h6.771v.621A1.044,1.044,0,0,0,23.491,5.36h1.722a1.161,1.161,0,0,0,1.213-1.072V3.668h1.806a.959.959,0,0,1,1.016,1.044Z" transform="translate(-7.804)" fill="#fff"/>
        <path id="Path_120" data-name="Path 120" d="M119.853,200.444l-.508,2.821a.564.564,0,0,0,.818.592l2.539-1.326,2.539,1.326.254.056a.536.536,0,0,0,.339-.113.564.564,0,0,0,.226-.536l-.508-2.821,2.06-1.975a.621.621,0,0,0,.141-.592.593.593,0,0,0-.451-.367l-2.821-.423-1.27-2.567a.564.564,0,0,0-1.016,0l-1.27,2.567-2.821.423a.592.592,0,0,0-.451.367.621.621,0,0,0,.141.592Zm1.552-2.285a.508.508,0,0,0,.395-.31l.9-1.806.9,1.806a.508.508,0,0,0,.395.31l2,.282-1.439,1.382a.593.593,0,0,0-.169.508l.339,2-1.777-.959-.254-.056-.254.056-1.777.959.339-2a.592.592,0,0,0-.169-.508l-1.439-1.382Z" transform="translate(-111.697 -183.714)" fill="#fff"/>
      </g>
    </g>
  </g>
</svg>
