<svg id="_005-network" data-name="005-network" xmlns="http://www.w3.org/2000/svg" width="22.273" height="22.313" viewBox="0 0 22.273 22.313">
  <path id="Path_22" data-name="Path 22" d="M412.229,277.495a3.6,3.6,0,0,0-2.584,3.446v3.233a.359.359,0,0,0,.359.359h6.467a.359.359,0,0,0,.359-.359v-3.233a3.6,3.6,0,0,0-2.584-3.446,2.515,2.515,0,1,0-2.017,0Zm3.883,3.446v2.874h-5.748v-2.874a2.874,2.874,0,1,1,5.748,0Zm-2.874-7.545a1.8,1.8,0,1,1-1.8,1.8A1.8,1.8,0,0,1,413.237,273.4Zm0,0" transform="translate(-402.1 -267.647)" fill="#19a0ff"/>
  <path id="Path_23" data-name="Path 23" d="M156.948,159.159l-.013.03.15.063a1.4,1.4,0,0,0,.354.149l.158.067.013-.031a1.309,1.309,0,0,0,.931-.183l1.273,1.273.508-.508-1.273-1.273a1.424,1.424,0,0,0,.2-.726,1.406,1.406,0,0,0-.02-.205l.031-.013-.067-.158a1.4,1.4,0,0,0-.149-.354l-.063-.149-.03.013A1.4,1.4,0,0,0,156.8,157a1.437,1.437,0,0,0,0,2.032A1.461,1.461,0,0,0,156.948,159.159Zm.359-1.646a.719.719,0,1,1,1.016,1.016.735.735,0,0,1-1.016,0A.718.718,0,0,1,157.308,157.512Zm0,0" transform="translate(-153.504 -153.709)" fill="#19a0ff"/>
  <path id="Path_24" data-name="Path 24" d="M842.042,839.539l.013-.032-.2-.085a1.388,1.388,0,0,0-.22-.093l-.241-.1-.018.043a1.487,1.487,0,0,0-.924.174l-1.276-1.276-.508.508,1.273,1.273a1.422,1.422,0,0,0-.2.726,1.451,1.451,0,0,0,.02.205l-.031.013.067.158a1.4,1.4,0,0,0,.149.354l.063.15.03-.013a1.436,1.436,0,1,0,2.155-1.883A1.329,1.329,0,0,0,842.042,839.539Zm-.359,1.645a.736.736,0,0,1-1.016,0,.719.719,0,1,1,1.016,0Zm0,0" transform="translate(-823.212 -822.712)" fill="#19a0ff"/>
  <path id="Path_25" data-name="Path 25" d="M958.4,524.7a1.406,1.406,0,0,0-.206.021l-.019-.046-.314.133-.041.017-.309.13.019.046a1.433,1.433,0,0,0-.517.777h-1.847v.719h1.847a1.433,1.433,0,0,0,.518.778l-.02.046.31.13.041.017.312.131.019-.046a1.434,1.434,0,1,0,.206-2.853Zm0,2.156a.719.719,0,1,1,.719-.718A.719.719,0,0,1,958.4,526.856Zm0,0" transform="translate(-937.563 -515)" fill="#19a0ff"/>
  <path id="Path_26" data-name="Path 26" d="M839.727,157.8l.031.013a1.45,1.45,0,0,0-.02.205,1.422,1.422,0,0,0,.2.726l-1.273,1.273.508.508,1.273-1.273a1.309,1.309,0,0,0,.931.183l.013.031.158-.067a1.4,1.4,0,0,0,.354-.149l.15-.063-.013-.03a1.477,1.477,0,0,0,.149-.122,1.437,1.437,0,0,0,0-2.032,1.47,1.47,0,0,0-2.032,0,1.411,1.411,0,0,0-.123.149l-.03-.013-.063.15a1.4,1.4,0,0,0-.149.354Zm.94-.29a.719.719,0,1,1,1.016,1.016.735.735,0,0,1-1.016,0A.719.719,0,0,1,840.667,157.512Zm0,0" transform="translate(-823.212 -153.709)" fill="#19a0ff"/>
  <path id="Path_27" data-name="Path 27" d="M765.715,132.244l.279-.662.6.252-.279.662Zm0,0" transform="translate(-751.604 -129.156)" fill="#19a0ff"/>
  <path id="Path_28" data-name="Path 28" d="M701.129,104.506l.279-.662.6.253-.279.662Zm0,0" transform="translate(-688.209 -101.929)" fill="#19a0ff"/>
  <path id="Path_29" data-name="Path 29" d="M830.664,159.669l.279-.662.6.252-.279.661Zm0,0" transform="translate(-815.355 -156.076)" fill="#19a0ff"/>
  <path id="Path_30" data-name="Path 30" d="M1054.973,701.232l.253-.6.662.279-.253.6Zm0,0" transform="translate(-1035.527 -687.713)" fill="#19a0ff"/>
  <path id="Path_31" data-name="Path 31" d="M1000.18,831.205l.253-.6.662.279-.253.6Zm0,0" transform="translate(-981.745 -815.289)" fill="#19a0ff"/>
  <path id="Path_32" data-name="Path 32" d="M1027.563,766.236l.253-.6.662.279-.253.6Zm0,0" transform="translate(-1008.623 -751.518)" fill="#19a0ff"/>
  <path id="Path_33" data-name="Path 33" d="M394.5,1027.486l.279-.662.6.252-.279.662Zm0,0" transform="translate(-387.234 -1007.889)" fill="#19a0ff"/>
  <path id="Path_34" data-name="Path 34" d="M459.434,1054.908l.279-.662.6.253-.279.662Zm0,0" transform="translate(-450.971 -1034.805)" fill="#19a0ff"/>
  <path id="Path_35" data-name="Path 35" d="M330.156,1000.334l.279-.662.6.253-.279.662Zm0,0" transform="translate(-324.077 -981.237)" fill="#19a0ff"/>
  <path id="Path_36" data-name="Path 36" d="M158.3,840.894l-.031-.013a1.309,1.309,0,0,0-.183-.931l1.273-1.273-.508-.508-1.276,1.276a1.487,1.487,0,0,0-.923-.174l-.018-.043-.241.1a1.343,1.343,0,0,0-.22.093l-.2.085.014.032a1.322,1.322,0,0,0-.149.121,1.437,1.437,0,1,0,2.032,2.032,1.492,1.492,0,0,0,.122-.149l.03.013.063-.149a1.394,1.394,0,0,0,.149-.354Zm-.94.29a.735.735,0,0,1-1.016,0,.719.719,0,1,1,1.016,0Zm0,0" transform="translate(-152.542 -822.712)" fill="#19a0ff"/>
  <path id="Path_37" data-name="Path 37" d="M131.742,395.267l.253-.6.662.279-.253.6Zm0,0" transform="translate(-129.322 -387.39)" fill="#19a0ff"/>
  <path id="Path_38" data-name="Path 38" d="M104.348,460.263l.253-.6.662.279-.253.6Zm0,0" transform="translate(-102.433 -451.188)" fill="#19a0ff"/>
  <path id="Path_39" data-name="Path 39" d="M159.156,330.294l.253-.6.662.279-.253.6Zm0,0" transform="translate(-156.231 -323.616)" fill="#19a0ff"/>
  <path id="Path_40" data-name="Path 40" d="M104.34,700.893l.662-.279.253.6-.662.279Zm0,0" transform="translate(-102.425 -687.694)" fill="#19a0ff"/>
  <path id="Path_41" data-name="Path 41" d="M159.156,830.9l.662-.279.253.6-.662.279Zm0,0" transform="translate(-156.231 -815.308)" fill="#19a0ff"/>
  <path id="Path_42" data-name="Path 42" d="M131.766,765.9l.662-.279.253.6-.662.279Zm0,0" transform="translate(-129.345 -751.499)" fill="#19a0ff"/>
  <path id="Path_43" data-name="Path 43" d="M2.476,527.467l.041-.017.309-.13-.02-.045a1.432,1.432,0,0,0,.517-.777H5.171v-.719H3.323A1.433,1.433,0,0,0,2.805,525l.019-.046-.309-.13-.041-.017-.312-.132-.019.046a1.4,1.4,0,0,0-.206-.021,1.437,1.437,0,1,0,0,2.874,1.42,1.42,0,0,0,.206-.021l.019.046Zm-1.257-1.329a.719.719,0,1,1,.718.718A.719.719,0,0,1,1.219,526.138Zm0,0" transform="translate(-0.5 -515)" fill="#19a0ff"/>
  <path id="Path_44" data-name="Path 44" d="M831.129,999.913l.6-.253.279.662-.6.253Zm0,0" transform="translate(-815.812 -981.226)" fill="#19a0ff"/>
  <path id="Path_45" data-name="Path 45" d="M701.117,1054.733l.6-.253.279.662-.6.253Zm0,0" transform="translate(-688.197 -1035.035)" fill="#19a0ff"/>
  <path id="Path_46" data-name="Path 46" d="M766.117,1027.323l.6-.253.279.662-.6.253Zm0,0" transform="translate(-751.999 -1008.13)" fill="#19a0ff"/>
  <path id="Path_47" data-name="Path 47" d="M527.956,957.351c-.006-.014-.011-.027-.017-.041l-.13-.309-.046.019a1.433,1.433,0,0,0-.777-.516v-1.848h-.719V956.5a1.433,1.433,0,0,0-.778.518l-.046-.02-.13.31-.017.041-.132.312.046.019a1.437,1.437,0,1,0,2.832,0l.046-.019Zm-1.329,1.258a.719.719,0,1,1,.719-.719A.719.719,0,0,1,526.627,958.608Zm0,0" transform="translate(-515.489 -937.052)" fill="#19a0ff"/>
  <path id="Path_48" data-name="Path 48" d="M1000.16,329.94l.662-.279.253.6-.662.279Zm0,0" transform="translate(-981.726 -323.581)" fill="#19a0ff"/>
  <path id="Path_49" data-name="Path 49" d="M1054.961,459.943l.662-.279.253.6-.662.279Zm0,0" transform="translate(-1035.516 -451.188)" fill="#19a0ff"/>
  <path id="Path_50" data-name="Path 50" d="M1027.574,394.939l.662-.279.252.6-.662.279Zm0,0" transform="translate(-1008.634 -387.382)" fill="#19a0ff"/>
  <path id="Path_51" data-name="Path 51" d="M525.3,1.976c.006.014.011.027.017.04l.13.31.046-.019a1.433,1.433,0,0,0,.777.517V4.671h.719V2.823a1.431,1.431,0,0,0,.778-.518l.046.02.13-.31c.006-.013.011-.027.017-.04l.131-.312-.046-.019a1.448,1.448,0,0,0,.021-.206,1.437,1.437,0,0,0-2.874,0,1.439,1.439,0,0,0,.021.206l-.046.019ZM526.627.719a.719.719,0,1,1-.718.718A.719.719,0,0,1,526.627.719Zm0,0" transform="translate(-515.489)" fill="#19a0ff"/>
  <path id="Path_52" data-name="Path 52" d="M330.172,158.893l.6-.253.279.662-.6.253Zm0,0" transform="translate(-324.093 -155.715)" fill="#19a0ff"/>
  <path id="Path_53" data-name="Path 53" d="M460.168,104.124l.6-.253.279.662-.6.253Zm0,0" transform="translate(-451.691 -101.956)" fill="#19a0ff"/>
  <path id="Path_54" data-name="Path 54" d="M395.184,131.518l.6-.253.279.662-.6.253Zm0,0" transform="translate(-387.905 -128.845)" fill="#19a0ff"/>
</svg>
