<svg xmlns="http://www.w3.org/2000/svg" width="13.945" height="17.876" viewBox="0 0 13.945 17.876">
  <g id="_006-account" data-name="006-account" transform="translate(0 -1)">
    <path id="Path_55" data-name="Path 55" d="M64.358,154.716A4.358,4.358,0,1,0,60,150.358,4.358,4.358,0,0,0,64.358,154.716Zm-1.927-1.453a2.18,2.18,0,0,1,3.854,0,3.484,3.484,0,0,1-3.854,0Zm1.927-6.391a3.487,3.487,0,0,1,2.6,5.811,3.05,3.05,0,0,0-5.2,0,3.487,3.487,0,0,1,2.6-5.811Zm0,0" transform="translate(-57.385 -139.637)" fill="#19a0ff"/>
    <path id="Path_56" data-name="Path 56" d="M123.486,187.743a1.743,1.743,0,1,0-1.743,1.743A1.745,1.745,0,0,0,123.486,187.743Zm-1.743.872a.872.872,0,1,1,.872-.872A.873.873,0,0,1,121.743,188.615Zm0,0" transform="translate(-114.77 -177.894)" fill="#19a0ff"/>
    <path id="Path_57" data-name="Path 57" d="M60.436,366.872H68.28a.436.436,0,1,0,0-.872H60.436a.436.436,0,1,0,0,.872Zm0,0" transform="translate(-57.385 -350.05)" fill="#19a0ff"/>
    <path id="Path_60" data-name="Path 60" d="M1.307,17.876h3.7a.358.358,0,1,0,0-.7h-3.7a.4.4,0,0,1-.436-.349V3.491a.4.4,0,0,1,.436-.349H2.615v.349a.4.4,0,0,0,.436.349H10.9a.4.4,0,0,0,.436-.349V3.142h1.307a.4.4,0,0,1,.436.349V16.828a.4.4,0,0,1-.436.349h-3.7a.358.358,0,1,0,0,.7h3.7a1.2,1.2,0,0,0,1.307-1.047V3.491a1.2,1.2,0,0,0-1.307-1.047H11.256a1.324,1.324,0,0,0-1.233-.7H9.152A2,2,0,0,0,6.973,0,2,2,0,0,0,4.794,1.746H3.922a1.324,1.324,0,0,0-1.233.7H1.307A1.2,1.2,0,0,0,0,3.491V16.828A1.2,1.2,0,0,0,1.307,17.876ZM3.922,2.444H5.23a.4.4,0,0,0,.436-.349V1.746A1.2,1.2,0,0,1,6.973.7,1.2,1.2,0,0,1,8.28,1.746v.349a.4.4,0,0,0,.436.349h1.307a.4.4,0,0,1,.436.349v.349H3.486V2.793A.4.4,0,0,1,3.922,2.444Zm0,0" transform="translate(0 1)" fill="#19a0ff"/>
  </g>
</svg>
