<svg xmlns="http://www.w3.org/2000/svg" width="21.403" height="18.811" viewBox="0 0 21.403 18.811">
  <path id="_002-portfolio" data-name="002-portfolio" d="M20.78,2.508H15.091V1.881A1.883,1.883,0,0,0,13.21,0H8.193A1.883,1.883,0,0,0,6.312,1.881v.627H.627A.629.629,0,0,0,0,3.135v13.8a1.883,1.883,0,0,0,1.881,1.881H19.522A1.883,1.883,0,0,0,21.4,16.93V3.146A.609.609,0,0,0,20.78,2.508ZM7.566,1.881a.628.628,0,0,1,.627-.627H13.21a.628.628,0,0,1,.627.627v.627H7.566Zm12.34,1.881L17.959,9.6a.626.626,0,0,1-.595.429H13.837V9.406a.627.627,0,0,0-.627-.627H8.193a.627.627,0,0,0-.627.627v.627H4.039A.626.626,0,0,1,3.444,9.6L1.5,3.762Zm-7.323,6.27v1.254H8.821V10.033Zm7.566,6.9a.628.628,0,0,1-.627.627H1.881a.628.628,0,0,1-.627-.627V7l1,3a1.878,1.878,0,0,0,1.784,1.286H7.566v.627a.627.627,0,0,0,.627.627H13.21a.627.627,0,0,0,.627-.627v-.627h3.527A1.878,1.878,0,0,0,19.149,10l1-3Zm0,0" fill="#19a0ff"/>
</svg>
