<svg id="_003-envelope" data-name="003-envelope" xmlns="http://www.w3.org/2000/svg" width="22.313" height="16.981" viewBox="0 0 22.313 16.981">
  <g id="Group_17" data-name="Group 17" transform="translate(0 0)">
    <path id="Path_16" data-name="Path 16" d="M19.589,57.75H2.729A2.731,2.731,0,0,0,0,60.479V72a2.731,2.731,0,0,0,2.729,2.729H19.585A2.731,2.731,0,0,0,22.313,72V60.483A2.728,2.728,0,0,0,19.589,57.75ZM21.072,72a1.484,1.484,0,0,1-1.482,1.482H2.729A1.484,1.484,0,0,1,1.247,72V60.483A1.484,1.484,0,0,1,2.729,59H19.585a1.484,1.484,0,0,1,1.482,1.482V72Z" transform="translate(0 -57.75)" fill="#19a0ff"/>
    <path id="Path_17" data-name="Path 17" d="M67.251,114.888l5.457-4.894a.624.624,0,1,0-.836-.928l-7.526,6.755-1.468-1.311s-.009-.009-.009-.014a.924.924,0,0,0-.1-.088l-5.974-5.346a.625.625,0,0,0-.831.933l5.522,4.935-5.5,5.148a.626.626,0,0,0-.028.882.638.638,0,0,0,.457.2.625.625,0,0,0,.425-.166l5.582-5.222,1.514,1.353a.622.622,0,0,0,.831,0l1.556-1.394L71.872,121a.625.625,0,0,0,.882-.023.626.626,0,0,0-.023-.882Z" transform="translate(-53.178 -106.541)" fill="#19a0ff"/>
  </g>
</svg>
