<svg id="_004-hand" data-name="004-hand" xmlns="http://www.w3.org/2000/svg" width="22.307" height="22.313" viewBox="0 0 22.307 22.313">
  <path id="Path_18" data-name="Path 18" d="M219.468,330.937a.436.436,0,1,0-.616,0A.436.436,0,0,0,219.468,330.937Zm0,0" transform="translate(-209.214 -315.803)" fill="#19a0ff"/>
  <path id="Path_19" data-name="Path 19" d="M188.449,4.792A4.793,4.793,0,1,0,193.242,0,4.8,4.8,0,0,0,188.449,4.792Zm8.714,0A3.921,3.921,0,1,1,193.242.871,3.926,3.926,0,0,1,197.163,4.792Zm0,0" transform="translate(-180.258)" fill="#19a0ff"/>
  <path id="Path_20" data-name="Path 20" d="M5.519,225.251a.436.436,0,0,0,.615,0l2.112-2.081a1.317,1.317,0,0,0,.31-1.352l.454-.438a1.3,1.3,0,0,1,.907-.367H15.71a3.9,3.9,0,0,0,2.735-1.111c.03-.029-.23.277,3.951-4.72a1.743,1.743,0,0,0-2.652-2.262l-2.571,2.642a1.751,1.751,0,0,0-1.355-.649H10.961a5.621,5.621,0,0,0-2.182-.436,5.39,5.39,0,0,0-4.913,2.786,1.3,1.3,0,0,0-1.165.361L.628,219.707a.436.436,0,0,0,0,.615Zm3.26-9.9a4.756,4.756,0,0,1,1.918.4.435.435,0,0,0,.175.037h4.948a.871.871,0,1,1,0,1.743H12.264a.436.436,0,1,0,0,.871h3.555a1.74,1.74,0,0,0,1.727-1.97c2.487-2.556,2.838-2.916,2.853-2.934a.872.872,0,1,1,1.331,1.126L17.822,219.3a3.034,3.034,0,0,1-2.112.849H9.918a2.166,2.166,0,0,0-1.512.611l-.37.357L4.622,217.7A4.5,4.5,0,0,1,8.779,215.353Zm-5.462,2.891a.435.435,0,0,1,.539-.061c.075.046-.141-.151,3.774,3.758a.437.437,0,0,1,0,.614l-1.8,1.774-4.281-4.314Zm0,0" transform="translate(-0.501 -203.066)" fill="#19a0ff"/>
  <path id="Path_21" data-name="Path 21" d="M266.686,40.424v.511a1.307,1.307,0,0,0,.436,2.539.436.436,0,1,1,0,.871.788.788,0,0,1-.566-.33.436.436,0,0,0-.667.561,1.807,1.807,0,0,0,.8.567v.508a.436.436,0,1,0,.871,0v-.511a1.307,1.307,0,0,0-.436-2.539.436.436,0,0,1,0-.871.7.7,0,0,1,.471.228.436.436,0,1,0,.606-.626,1.683,1.683,0,0,0-.642-.4v-.507a.436.436,0,1,0-.871,0Zm0,0" transform="translate(-254.225 -38.246)" fill="#19a0ff"/>
</svg>
