<svg id="_008-settings" data-name="008-settings" xmlns="http://www.w3.org/2000/svg" width="15.268" height="15.716" viewBox="0 0 15.268 15.716">
  <g id="Group_18" data-name="Group 18" transform="translate(0)">
    <path id="Path_64" data-name="Path 64" d="M174.833,7.66V.442a.442.442,0,0,0-.883,0V7.66a2.243,2.243,0,0,0,0,4.4v3.213a.442.442,0,0,0,.883,0V12.058a2.243,2.243,0,0,0,0-4.4Zm-.442,3.557a1.358,1.358,0,1,1,1.358-1.358A1.359,1.359,0,0,1,174.391,11.217Z" transform="translate(-166.741)" fill="#19a0ff"/>
    <path id="Path_65" data-name="Path 65" d="M9.533,3.956V.442a.442.442,0,0,0-.883,0V3.956a2.243,2.243,0,0,0,0,4.4v6.917a.442.442,0,0,0,.883,0V8.35a2.241,2.241,0,0,0,0-4.394ZM9.091,7.513a1.358,1.358,0,1,1,1.358-1.358A1.359,1.359,0,0,1,9.091,7.513Z" transform="translate(-6.85)" fill="#19a0ff"/>
    <path id="Path_66" data-name="Path 66" d="M339.133,3.956V.442a.442.442,0,1,0-.883,0V3.956a2.243,2.243,0,0,0,0,4.4v6.92a.442.442,0,1,0,.883,0V8.35a2.241,2.241,0,0,0,0-4.394Zm-.442,3.557a1.358,1.358,0,1,1,1.358-1.358A1.359,1.359,0,0,1,338.691,7.513Z" transform="translate(-325.665)" fill="#19a0ff"/>
  </g>
</svg>
